<?xml version="1.0" encoding="UTF-8"?>
<svg width="54px" height="54px" viewBox="0 0 54 54" version="1.1" xmlns="http://www.w3.org/2000/svg" xmlns:xlink="http://www.w3.org/1999/xlink">
    <title>noun_content_1509907</title>
    <g id="Page-1" stroke="none" stroke-width="1" fill="none" fill-rule="evenodd">
        <g id="Desktop-HD-Copy-3" transform="translate(-1096.000000, -1252.000000)" fill="#0278FC" fill-rule="nonzero">
            <g id="noun_content_1509907" transform="translate(1096.000000, 1252.000000)">
                <path d="M52.8,0 L1.2,0 C0.54,0 0,0.54 0,1.2 L0,52.8 C0,53.46 0.54,54 1.2,54 L52.8,54 C53.46,54 54,53.46 54,52.8 L54,1.2 C54,0.54 53.46,0 52.8,0 Z M2.4,2.4 L32.4,2.4 L32.4,7.2 L2.4,7.2 L2.4,2.4 Z M51.6,51.6 L2.4,51.6 L2.4,9.6 L51.6,9.6 L51.6,51.6 Z M51.6,7.2 L34.8,7.2 L34.8,2.4 L51.6,2.4 L51.6,7.2 Z M49.2,4.8 C49.2,5.1 49.08,5.4 48.84,5.64 C48.6,5.88 48.3,6 48,6 C47.94,6 47.82,6 47.76,6 C47.7,6 47.58,5.94 47.52,5.94 C47.46,5.94 47.4,5.88 47.34,5.82 C47.28,5.76 47.22,5.76 47.16,5.7 C47.1,5.64 47.04,5.58 47.04,5.52 C46.98,5.46 46.98,5.4 46.92,5.34 C46.86,5.28 46.86,5.22 46.86,5.1 C46.86,5.04 46.86,4.92 46.86,4.86 C46.86,4.56 46.98,4.26 47.22,4.02 C47.28,3.96 47.34,3.9 47.4,3.9 C47.46,3.9 47.52,3.84 47.58,3.78 C47.64,3.78 47.7,3.72 47.82,3.72 C48.24,3.66 48.6,3.78 48.9,4.02 C49.08,4.2 49.2,4.5 49.2,4.8 Z M44.4,4.8 C44.4,5.1 44.28,5.4 44.04,5.64 C43.98,5.7 43.92,5.76 43.86,5.76 C43.8,5.76 43.74,5.82 43.68,5.88 C43.62,5.88 43.56,5.94 43.44,5.94 C43.38,5.94 43.26,5.94 43.2,5.94 C42.9,5.94 42.6,5.82 42.36,5.58 C42.12,5.4 42,5.1 42,4.8 C42,4.5 42.12,4.2 42.36,3.96 C42.66,3.66 43.02,3.54 43.44,3.66 C43.5,3.66 43.56,3.72 43.68,3.72 C43.74,3.78 43.8,3.78 43.86,3.84 C43.92,3.9 43.98,3.96 44.04,3.96 C44.28,4.2 44.4,4.5 44.4,4.8 Z M39.6,4.8 C39.6,5.1 39.48,5.4 39.24,5.64 C39.18,5.7 39.12,5.76 39.06,5.76 C39,5.76 38.94,5.82 38.88,5.88 C38.82,5.88 38.76,5.94 38.64,5.94 C38.58,5.94 38.46,5.94 38.4,5.94 C38.1,5.94 37.8,5.82 37.56,5.58 C37.32,5.4 37.2,5.1 37.2,4.8 C37.2,4.74 37.2,4.62 37.2,4.56 C37.2,4.5 37.26,4.44 37.26,4.32 C37.26,4.26 37.32,4.2 37.38,4.14 C37.44,4.08 37.44,4.02 37.5,3.96 C37.56,3.9 37.62,3.84 37.68,3.84 C37.74,3.84 37.8,3.78 37.86,3.72 C37.92,3.72 37.98,3.66 38.1,3.66 C38.28,3.66 38.4,3.66 38.58,3.66 C38.64,3.66 38.7,3.72 38.82,3.72 C38.88,3.78 38.94,3.78 39,3.84 C39.06,3.9 39.12,3.96 39.18,3.96 C39.48,4.2 39.6,4.5 39.6,4.8 Z M45.06,16.14 C43.92,15 42.36,14.4 40.8,14.4 C39.48,14.4 38.22,14.82 37.2,15.6 L8.4,15.6 C7.74,15.6 7.2,16.14 7.2,16.8 C7.2,17.46 7.74,18 8.4,18 L34.68,18 L33.12,19.56 L22.68,30 L8.4,30 C7.74,30 7.2,30.54 7.2,31.2 C7.2,31.86 7.74,32.4 8.4,32.4 L20.28,32.4 L16.02,36.66 C15.84,36.84 15.72,37.08 15.66,37.32 L14.58,44.4 L8.4,44.4 C7.74,44.4 7.2,44.94 7.2,45.6 C7.2,46.26 7.74,46.8 8.4,46.8 L15.6,46.8 C15.66,46.8 15.72,46.8 15.72,46.8 L15.78,46.8 L15.84,46.8 L23.88,45.54 C24.12,45.48 24.36,45.36 24.54,45.18 L41.64,28.08 L45.06,24.66 C47.4,22.32 47.4,18.54 45.06,16.14 Z M23.16,43.2 L17.04,44.16 L18,38.04 L34.8,21.24 L39.9,26.34 L23.16,43.2 Z M43.32,22.98 L41.64,24.66 L36.54,19.56 L38.1,18 L38.22,17.88 C38.64,17.46 39.06,17.22 39.6,17.04 C39.96,16.92 40.38,16.86 40.8,16.86 C41.76,16.86 42.66,17.22 43.38,17.94 C44.76,19.26 44.76,21.6 43.32,22.98 Z" id="Shape"></path>
            </g>
        </g>
    </g>
</svg>