<?xml version="1.0" encoding="UTF-8"?>
<svg width="54px" height="54px" viewBox="0 0 54 54" version="1.1" xmlns="http://www.w3.org/2000/svg" xmlns:xlink="http://www.w3.org/1999/xlink">
    <title>noun_content_251347</title>
    <g id="Page-1" stroke="none" stroke-width="1" fill="none" fill-rule="evenodd">
        <g id="Desktop-HD-Copy-3" transform="translate(-557.000000, -433.000000)" fill="#0278FC" fill-rule="nonzero">
            <g id="noun_content_251347" transform="translate(557.000000, 433.000000)">
                <path d="M14.4418605,19.1511628 L1.88372093,19.1511628 C1.00465116,19.1511628 0.313953488,19.8418605 0.313953488,20.7209302 L0.313953488,33.2790698 C0.313953488,34.1581395 1.00465116,34.8488372 1.88372093,34.8488372 L14.4418605,34.8488372 C15.3209302,34.8488372 16.0116279,34.1581395 16.0116279,33.2790698 L16.0116279,20.7209302 C16.0116279,19.8418605 15.3209302,19.1511628 14.4418605,19.1511628 Z M12.872093,31.7093023 L3.45348837,31.7093023 L3.45348837,22.2906977 L12.872093,22.2906977 L12.872093,31.7093023 Z" id="Shape"></path>
                <path d="M14.4418605,0.313953488 L1.88372093,0.313953488 C1.00465116,0.313953488 0.313953488,1.00465116 0.313953488,1.88372093 L0.313953488,14.4418605 C0.313953488,15.3209302 1.00465116,16.0116279 1.88372093,16.0116279 L14.4418605,16.0116279 C15.3209302,16.0116279 16.0116279,15.3209302 16.0116279,14.4418605 L16.0116279,1.88372093 C16.0116279,1.00465116 15.3209302,0.313953488 14.4418605,0.313953488 Z M12.872093,12.872093 L3.45348837,12.872093 L3.45348837,3.45348837 L12.872093,3.45348837 L12.872093,12.872093 Z" id="Shape"></path>
                <path d="M14.4418605,37.9883721 L1.88372093,37.9883721 C1.00465116,37.9883721 0.313953488,38.6790698 0.313953488,39.5581395 L0.313953488,52.1162791 C0.313953488,52.9953488 1.00465116,53.6860465 1.88372093,53.6860465 L14.4418605,53.6860465 C15.3209302,53.6860465 16.0116279,52.9953488 16.0116279,52.1162791 L16.0116279,39.5581395 C16.0116279,38.6790698 15.3209302,37.9883721 14.4418605,37.9883721 Z M12.872093,50.5465116 L3.45348837,50.5465116 L3.45348837,41.127907 L12.872093,41.127907 L12.872093,50.5465116 Z" id="Shape"></path>
                <path d="M52.1162791,3.45348837 L20.7209302,3.45348837 C19.8418605,3.45348837 19.1511628,4.14418605 19.1511628,5.02325581 C19.1511628,5.90232558 19.8418605,6.59302326 20.7209302,6.59302326 L52.1162791,6.59302326 C52.9953488,6.59302326 53.6860465,5.90232558 53.6860465,5.02325581 C53.6860465,4.14418605 52.9953488,3.45348837 52.1162791,3.45348837 Z" id="Path"></path>
                <path d="M52.1162791,22.2906977 L20.7209302,22.2906977 C19.8418605,22.2906977 19.1511628,22.9813953 19.1511628,23.8604651 C19.1511628,24.7395349 19.8418605,25.4302326 20.7209302,25.4302326 L52.1162791,25.4302326 C52.9953488,25.4302326 53.6860465,24.7395349 53.6860465,23.8604651 C53.6860465,22.9813953 52.9953488,22.2906977 52.1162791,22.2906977 Z" id="Path"></path>
                <path d="M52.1162791,41.127907 L20.7209302,41.127907 C19.8418605,41.127907 19.1511628,41.8186047 19.1511628,42.6976744 C19.1511628,43.5767442 19.8418605,44.2674419 20.7209302,44.2674419 L52.1162791,44.2674419 C52.9953488,44.2674419 53.6860465,43.5767442 53.6860465,42.6976744 C53.6860465,41.8186047 52.9953488,41.127907 52.1162791,41.127907 Z" id="Path"></path>
                <path d="M20.7209302,12.872093 L39.5581395,12.872093 C40.4372093,12.872093 41.127907,12.1813953 41.127907,11.3023256 C41.127907,10.4232558 40.4372093,9.73255814 39.5581395,9.73255814 L20.7209302,9.73255814 C19.8418605,9.73255814 19.1511628,10.4232558 19.1511628,11.3023256 C19.1511628,12.1813953 19.8418605,12.872093 20.7209302,12.872093 Z" id="Path"></path>
                <path d="M20.7209302,31.7093023 L39.5581395,31.7093023 C40.4372093,31.7093023 41.127907,31.0186047 41.127907,30.1395349 C41.127907,29.2604651 40.4372093,28.5697674 39.5581395,28.5697674 L20.7209302,28.5697674 C19.8418605,28.5697674 19.1511628,29.2604651 19.1511628,30.1395349 C19.1511628,31.0186047 19.8418605,31.7093023 20.7209302,31.7093023 Z" id="Path"></path>
                <path d="M39.5581395,47.4069767 L20.7209302,47.4069767 C19.8418605,47.4069767 19.1511628,48.0976744 19.1511628,48.9767442 C19.1511628,49.855814 19.8418605,50.5465116 20.7209302,50.5465116 L39.5581395,50.5465116 C40.4372093,50.5465116 41.127907,49.855814 41.127907,48.9767442 C41.127907,48.0976744 40.4372093,47.4069767 39.5581395,47.4069767 Z" id="Path"></path>
            </g>
        </g>
    </g>
</svg>