<?xml version="1.0"?>
<svg xmlns="http://www.w3.org/2000/svg" xmlns:xlink="http://www.w3.org/1999/xlink" xmlns:svgjs="http://svgjs.com/svgjs" version="1.1" width="512" height="512" x="0" y="0" viewBox="0 0 512 512" style="enable-background:new 0 0 512 512" xml:space="preserve" class=""><g><path xmlns="http://www.w3.org/2000/svg" d="m467 1h-422c-24.813 0-45 20.187-45 45v420c0 24.813 20.187 45 45 45h422c24.813 0 45-20.187 45-45v-420c0-24.813-20.187-45-45-45zm-422 30h422c8.271 0 15 6.729 15 15v75h-452v-75c0-8.271 6.729-15 15-15zm422 450h-422c-8.271 0-15-6.729-15-15v-315h452v315c0 8.271-6.729 15-15 15z" fill="#0278fc" data-original="#000000" style="" class=""/><path xmlns="http://www.w3.org/2000/svg" d="m306.909 197.213c-7.614-3.263-16.433.264-19.696 7.878l-90 210c-3.264 7.614.264 16.433 7.878 19.696 7.617 3.264 16.434-.266 19.696-7.878l90-210c3.264-7.615-.264-16.433-7.878-19.696z" fill="#0278fc" data-original="#000000" style="" class=""/><path xmlns="http://www.w3.org/2000/svg" d="m177.713 246.629c-5.176-6.469-14.617-7.517-21.083-2.342l-75 60c-7.499 5.997-7.504 17.424 0 23.426l75 60c6.469 5.176 15.91 4.126 21.083-2.342 5.175-6.469 4.127-15.909-2.343-21.083l-60.358-48.288 60.358-48.287c6.47-5.175 7.518-14.614 2.343-21.084z" fill="#0278fc" data-original="#000000" style="" class=""/><path xmlns="http://www.w3.org/2000/svg" d="m430.37 304.287-75-60c-6.469-5.176-15.909-4.127-21.083 2.342-5.175 6.469-4.127 15.909 2.343 21.083l60.358 48.288-60.358 48.287c-6.47 5.175-7.518 14.614-2.343 21.083 5.182 6.476 14.623 7.512 21.083 2.342l75-60c7.499-5.997 7.504-17.423 0-23.425z" fill="#0278fc" data-original="#000000" style="" class=""/><circle xmlns="http://www.w3.org/2000/svg" cx="76" cy="76" r="15" fill="#0278fc" data-original="#000000" style="" class=""/><circle xmlns="http://www.w3.org/2000/svg" cx="136" cy="76" r="15" fill="#0278fc" data-original="#000000" style="" class=""/><circle xmlns="http://www.w3.org/2000/svg" cx="196" cy="76" r="15" fill="#0278fc" data-original="#000000" style="" class=""/><path xmlns="http://www.w3.org/2000/svg" d="m346 91h90c8.284 0 15-6.716 15-15s-6.716-15-15-15h-90c-8.284 0-15 6.716-15 15s6.716 15 15 15z" fill="#0278fc" data-original="#000000" style="" class=""/></g></svg>
