<?xml version="1.0" encoding="UTF-8"?>
<svg width="53px" height="54px" viewBox="0 0 53 54" version="1.1" xmlns="http://www.w3.org/2000/svg" xmlns:xlink="http://www.w3.org/1999/xlink">
    <title>noun_development_963352</title>
    <g id="Page-1" stroke="none" stroke-width="1" fill="none" fill-rule="evenodd">
        <g id="Desktop-HD-Copy-3" transform="translate(-954.000000, -432.000000)" fill="#0278FC" fill-rule="nonzero">
            <g id="Group" transform="translate(954.000000, 432.000000)">
                <path d="M42.55,15.75 C41.65,14.85 40.225,14.85 39.4,15.75 C38.5,16.65 38.5,18.075 39.4,18.9 L47.5,27 L39.4,35.1 C38.5,36 38.5,37.425 39.4,38.25 C39.85,38.7 40.45,38.925 40.975,38.925 C41.5,38.925 42.1,38.7 42.55,38.25 L52.225,28.575 C53.125,27.675 53.125,26.25 52.225,25.425 L42.55,15.75 Z" id="Path"></path>
                <path d="M35,0.6 C33.8,0.225 32.525,0.975 32.225,2.175 L18.425,50.625 C18.05,51.825 18.8,53.1 20,53.4 C20.225,53.475 20.375,53.475 20.6,53.475 C21.575,53.475 22.475,52.8 22.775,51.825 L36.5,3.375 C36.875,2.175 36.2,0.9 35,0.6 Z" id="Path"></path>
                <path d="M14.1,15.75 C13.2,14.85 11.775,14.85 10.95,15.75 L1.275,25.425 C0.375,26.325 0.375,27.75 1.275,28.575 L10.95,38.25 C11.4,38.7 12,38.925 12.525,38.925 C13.05,38.925 13.65,38.7 14.1,38.25 C15,37.35 15,35.925 14.1,35.1 L6,27 L14.1,18.9 C15,18.075 15,16.65 14.1,15.75 Z" id="Path"></path>
            </g>
        </g>
    </g>
</svg>