<?xml version="1.0" encoding="UTF-8"?>
<svg width="60px" height="54px" viewBox="0 0 60 54" version="1.1" xmlns="http://www.w3.org/2000/svg" xmlns:xlink="http://www.w3.org/1999/xlink">
    <title>noun_Language_3325148</title>
    <g id="Page-1" stroke="none" stroke-width="1" fill="none" fill-rule="evenodd">
        <g id="Desktop-HD-Copy-3" transform="translate(-702.000000, -1250.000000)" fill="#0278FC" fill-rule="nonzero">
            <g id="noun_Language_3325148" transform="translate(702.000000, 1250.000000)">
                <path d="M52.6789286,17.5982143 L37.0671429,17.5982143 L37.0671429,6.80785714 C37.0618322,3.18332357 34.1248907,0.246382109 30.5003571,0.241071429 L7.10678571,0.241071429 C3.48225214,0.246382109 0.54531068,3.18332357 0.539995988,6.80785714 L0.539995988,21.4360714 C0.538560086,22.7313706 0.924769564,23.997466 1.64892857,25.0714286 C3.96321429,29.5264286 14.6378571,36.1125 14.7535714,36.18 C14.9812186,36.3157407 15.240689,36.3889246 15.5057143,36.3921429 C15.9878137,36.3964665 16.4399455,36.1587074 16.7096112,35.7590589 C16.9792769,35.3594105 17.0305255,34.8511525 16.8460714,34.4057143 C16.0707614,32.3119788 15.4708386,30.1574174 15.0525,27.9642857 L22.7667857,27.9642857 L22.7667857,38.7642857 C22.7719812,42.368515 25.6812213,45.2949695 29.2853571,45.3214286 L44.7139286,45.3214286 C44.2945537,47.5080249 43.6946424,49.6560943 42.9203571,51.7435714 C42.7359031,52.1890096 42.7871516,52.6972676 43.0568174,53.0969161 C43.3264831,53.4965645 43.7786149,53.7343236 44.2607143,53.730058 C44.5257396,53.7267818 44.78521,53.6535978 45.0128571,53.5178571 C45.1285714,53.4503571 55.8032143,46.8642857 58.1175,42.4092857 C58.8435027,41.3326002 59.2297964,40.0628696 59.2264504,38.7642857 L59.2264504,24.165 C59.22116,20.5479691 56.2959283,17.6141212 52.6789286,17.5982143 Z M19.7582143,25.0714286 L13.3167857,25.0714286 C12.8943394,25.0776522 12.4945432,25.2635224 12.2175,25.5825 C11.9442702,25.9017179 11.8244694,26.3245441 11.8896429,26.7396429 C11.8896429,26.8746429 12.2367857,28.9671429 12.8539286,31.455 C9.61392857,29.1985714 5.35178571,25.92 4.17535714,23.7407143 C4.1367696,23.6458792 4.08828713,23.5553786 4.03071429,23.4707143 C3.5968517,22.8635035 3.36722528,22.1341019 3.37480889,21.3878571 L3.37480889,6.80785714 C3.37749078,5.82417473 3.77332571,4.88235254 4.4743092,4.19223701 C5.17529269,3.50212149 6.12318446,3.12104995 7.10678571,3.13392857 L30.5003571,3.13392857 C32.5272129,3.13922757 34.1689867,4.78100139 34.1742857,6.80785714 L34.1742857,17.5982143 L29.2853571,17.5982143 C27.3927661,17.6006914 25.5932663,18.4196044 24.3482143,19.845 C23.3239552,19.8127968 22.314183,19.5938494 21.3685714,19.1989286 C22.889444,17.2857327 23.8178759,14.9696804 24.0396429,12.5357143 L24.8207143,12.5357143 C25.6195547,12.5357143 26.2671429,11.8881262 26.2671429,11.0892857 C26.2671429,10.2904453 25.6195547,9.64285714 24.8207143,9.64285714 L20.25,9.64285714 L20.25,7.06821429 C20.25,6.26937384 19.6024119,5.62178571 18.8035714,5.62178571 C18.004731,5.62178571 17.3571429,6.26937384 17.3571429,7.06821429 L17.3571429,9.64285714 L12.8539286,9.64285714 C12.0550881,9.64285714 11.4075,10.2904453 11.4075,11.0892857 C11.4075,11.8881262 12.0550881,12.5357143 12.8539286,12.5357143 L21.1275,12.5357143 C20.9231759,14.377919 20.1859224,16.1205182 19.0060714,17.55 C18.1610303,16.6112144 17.5060808,15.5174488 17.0775,14.3292857 C16.7899174,13.5837013 15.9523701,13.2124174 15.2067857,13.5 C14.4612013,13.7875826 14.0899174,14.6251299 14.3775,15.3707143 C14.9013439,16.7770444 15.6647656,18.0820387 16.6339286,19.2278571 C15.4488512,19.7052329 14.1794995,19.9381114 12.9021429,19.9125 L12.9021429,19.9125 C12.1033024,19.9125 11.4557143,20.5600881 11.4557143,21.3589286 C11.4557143,22.157769 12.1033024,22.8053571 12.9021429,22.8053571 L12.9021429,22.8053571 C15.0444536,22.8469745 17.1566753,22.2963954 19.0060714,21.2142857 C20.1987268,21.9421358 21.5278257,22.417986 22.9114286,22.6125 C22.7838443,23.1168799 22.7190678,23.6350913 22.7185714,24.1553571 L22.7185714,25.1196429 L19.7582143,25.0714286 Z M56.4012625,38.7642857 C56.4088462,39.5105305 56.1792197,40.2399321 55.7453571,40.8471429 C55.6878843,40.9284518 55.6393872,41.0157466 55.6007143,41.1075 C54.4628571,43.2675 50.1910714,46.5557143 46.9221429,48.8217857 C47.5682143,46.3339286 47.8864286,44.2414286 47.8864286,44.1064286 C47.951602,43.6913298 47.8318012,43.2685036 47.5585714,42.9492857 C47.2870632,42.6271921 46.8900954,42.4374906 46.4689286,42.4285714 L29.2853571,42.4285714 C27.2600622,42.4285784 25.6167443,40.7895736 25.6114286,38.7642857 L25.6114286,24.165 C25.6167276,22.1381443 27.2585014,20.4963704 29.2853571,20.4910714 L52.6789286,20.4910714 C54.7057843,20.4963704 56.3475581,22.1381443 56.3528571,24.165 L56.4012625,38.7642857 Z M46.2085714,33.4028571 L46.2085714,33.4028571 L42.3514286,23.76 L42.3514286,23.76 C42.3315631,23.7058492 42.3056871,23.6540971 42.2742857,23.6057143 L42.2164286,23.5092857 C42.1897951,23.4635373 42.1573862,23.4214057 42.12,23.3839286 L42.0428571,23.2875 L41.9367857,23.2007143 L41.8210714,23.1428571 C41.7890637,23.1179806 41.7532444,23.0984427 41.715,23.085 L41.5703571,23.0078571 L41.5703571,23.0078571 C41.535221,23.0022663 41.4994218,23.0022663 41.4642857,23.0078571 L41.3196429,22.9596429 L41.175,22.9596429 L41.04,22.9596429 L40.8857143,22.9596429 L40.7603571,22.9596429 L40.5964286,23.0078571 C40.5644261,23.0036094 40.5320025,23.0036094 40.5,23.0078571 L40.5,23.0078571 L40.3553571,23.085 L40.2107143,23.1428571 C40.1730494,23.1688444 40.1375739,23.1978698 40.1046429,23.2296429 L39.9985714,23.3164286 L39.9117857,23.4128571 C39.877335,23.4528158 39.8451421,23.4946666 39.8153571,23.5382143 L39.8153571,23.6346429 L39.7285714,23.7889286 L39.7285714,23.7889286 L35.8714286,33.4317857 L35.8714286,33.4317857 L33.9428571,38.2532143 C33.7851475,38.6154559 33.7824771,39.0264438 33.9354664,39.3907041 C34.0884558,39.7549644 34.3837883,40.0407911 34.7528571,40.1817857 C34.9233293,40.254937 35.107381,40.29109 35.2928571,40.2878571 C35.8818513,40.2846219 36.4108843,39.9268586 36.6332143,39.3814286 L38.1953571,35.4664286 L43.9810714,35.4664286 L45.5432143,39.3814286 C45.7689967,39.9283725 46.3015035,40.2859129 46.8932143,40.2878571 C47.0754764,40.29002 47.2561613,40.253883 47.4235714,40.1817857 C47.7926403,40.0407911 48.0879728,39.7549644 48.2409621,39.3907041 C48.3939515,39.0264438 48.3912811,38.6154559 48.2335714,38.2532143 L46.2085714,33.4028571 Z M39.2946429,32.5157143 L41.0207143,28.215 L42.7371429,32.5157143 L39.2946429,32.5157143 Z" id="Shape"></path>
            </g>
        </g>
    </g>
</svg>