<?xml version="1.0" encoding="UTF-8"?>
<svg width="53px" height="53px" viewBox="0 0 53 53" version="1.1" xmlns="http://www.w3.org/2000/svg" xmlns:xlink="http://www.w3.org/1999/xlink">
    <title>noun_Copyleft_883662</title>
    <g id="Page-1" stroke="none" stroke-width="1" fill="none" fill-rule="evenodd">
        <g id="Desktop-HD-Copy-3" transform="translate(-265.000000, -433.000000)" fill="#0278FC" fill-rule="nonzero">
            <g id="noun_Copyleft_883662" transform="translate(265.000000, 433.000000)">
                <path d="M26.5,53 C22.9472527,53 19.4527473,52.3010989 16.1912088,50.9032967 C13.0461538,49.5637363 10.1923077,47.6417582 7.74615385,45.2538462 C5.3,42.8076923 3.37802198,40.0120879 2.0967033,36.8087912 C0.698901099,33.5472527 0,30.0527473 0,26.5 C0,22.9472527 0.698901099,19.4527473 2.0967033,16.1912088 C3.43626374,13.0461538 5.35824176,10.1923077 7.74615385,7.74615385 C10.1340659,5.3 12.9879121,3.37802198 16.1912088,2.0967033 C19.4527473,0.698901099 22.9472527,0 26.5,0 C30.0527473,0 33.5472527,0.698901099 36.8087912,2.0967033 C39.9538462,3.43626374 42.8076923,5.35824176 45.2538462,7.74615385 C47.7,10.1923077 49.621978,12.9879121 50.9032967,16.1912088 C52.3010989,19.4527473 53,22.9472527 53,26.5 C53,30.0527473 52.3010989,33.5472527 50.9032967,36.8087912 C49.5637363,39.9538462 47.6417582,42.8076923 45.2538462,45.2538462 C42.8076923,47.7 40.0120879,49.621978 36.8087912,50.9032967 C33.5472527,52.3010989 30.0527473,53 26.5,53 Z M26.5,5.41648352 C20.8505495,5.41648352 15.5505495,7.62967033 11.5901099,11.5901099 C7.62967033,15.5505495 5.41648352,20.8505495 5.41648352,26.5 C5.41648352,32.1494505 7.62967033,37.4494505 11.5901099,41.4098901 C15.5505495,45.3703297 20.8505495,47.5835165 26.5,47.5835165 C32.1494505,47.5835165 37.4494505,45.3703297 41.4098901,41.4098901 C45.3703297,37.4494505 47.5835165,32.1494505 47.5835165,26.5 C47.5835165,20.8505495 45.3703297,15.5505495 41.4098901,11.5901099 C37.4494505,7.62967033 32.1494505,5.41648352 26.5,5.41648352 Z" id="Shape"></path>
                <path d="M11,22.564029 L18.2520345,22.564029 C20.1542074,18.4506633 25.0879686,16.6290299 29.248972,18.5094256 C33.4099753,20.3898214 35.2527054,25.267098 33.3505324,29.3804637 C31.4483595,33.4938295 26.5145983,35.3154629 22.3535949,33.4350671 C20.5703078,32.6123939 19.0842351,31.2020971 18.2520345,29.3804637 L11,29.3804637 C12.902173,37.4896705 21.1052939,42.4844718 29.248972,40.604076 C37.39265,38.7236802 42.5047399,30.6732358 40.6025669,22.564029 C38.7003939,14.4548222 30.497273,9.51878333 22.3535949,11.3991791 C16.7065189,12.6919512 12.3077439,17.0403664 11,22.564029 Z" id="Path"></path>
            </g>
        </g>
    </g>
</svg>