<?xml version="1.0" encoding="UTF-8"?>
<svg width="54px" height="54px" viewBox="0 0 54 54" version="1.1" xmlns="http://www.w3.org/2000/svg" xmlns:xlink="http://www.w3.org/1999/xlink">
    <title>noun_plugin_126719</title>
    <g id="Page-1" stroke="none" stroke-width="1" fill="none" fill-rule="evenodd">
        <g id="Desktop-HD-Copy-3" transform="translate(-303.000000, -1252.000000)" fill="#0278FC" fill-rule="nonzero">
            <g id="noun_plugin_126719" transform="translate(303.000000, 1252.000000)">
                <path d="M27.0035953,0 C26.9861915,0 26.9681875,0 26.9507836,0.000600200067 C26.6141087,0.009003001 18.6371344,0.249083028 13.0246861,3.84788263 C12.0422676,4.4780927 11.7560039,5.78532844 12.386144,6.76785595 C13.0162842,7.75038346 14.3233749,8.03607869 15.3057934,7.40646882 C19.7881904,4.5327109 26.6099078,4.24221407 27.0366027,4.22720907 C39.5775921,4.24461487 49.7744601,14.454018 49.7744601,27.0006002 C49.7744601,39.5573858 39.5595881,49.7733911 27.0041955,49.7733911 C20.7592064,49.7733911 14.7212634,47.2579527 10.4399112,42.8716906 C6.29538931,38.6264755 4.09109902,33.0080027 4.23273052,27.0678226 C4.36596015,22.8940313 6.5120375,19.1721907 9.4514913,18.0168056 C11.5507582,17.1915305 13.8972802,17.7233078 16.3284209,19.5455152 C13.5762087,23.7853284 14.0557154,29.5268423 17.7693414,33.2414805 L21.1564948,36.6290097 C21.553183,37.0251417 22.0903025,37.2478159 22.6508272,37.2478159 C23.2113518,37.2478159 23.7484713,37.0251417 24.1451595,36.6290097 L25.5398698,35.2341447 L28.9270231,38.6216739 C29.339915,39.0340113 29.8806353,39.2404802 30.4213555,39.2404802 C30.9620758,39.2404802 31.5027961,39.0340113 31.9156879,38.6216739 C32.7408714,37.7957986 32.7408714,36.4579527 31.9156879,35.6326776 L28.5285345,32.2451484 L32.2475617,28.5257086 L35.6347151,31.9132377 C36.0476069,32.3255752 36.5883272,32.532044 37.1290475,32.532044 C37.6697678,32.532044 38.210488,32.3255752 38.6233799,31.9132377 C39.4485634,31.0873625 39.4485634,29.7495165 38.6233799,28.9242414 L35.2362265,25.5367122 L36.6309367,24.1418473 C37.4561202,23.315972 37.4561202,21.978126 36.6309367,21.152851 L33.2437833,17.7647216 C31.1769236,15.6982327 28.4289124,14.5596532 25.5068624,14.5596532 C23.2539613,14.5596532 21.1066837,15.2384795 19.2936805,16.4946982 C14.3059711,12.530977 10.1026361,13.2194065 7.90494731,14.0830944 C3.3703387,15.8656886 0.196832837,21.0298099 0.00779078936,26.9501834 C-0.16264712,34.0547516 2.46833808,40.7583861 7.41463826,45.8246749 C12.4869665,51.0200067 19.6267545,54 27.0029952,54 C41.8893063,54 54,41.8879627 54,27 C54,12.1120373 41.8899064,0 27.0035953,0 Z" id="Path"></path>
            </g>
        </g>
    </g>
</svg>