<?xml version="1.0" standalone="no"?>
<!DOCTYPE svg PUBLIC "-//W3C//DTD SVG 20010904//EN"
 "http://www.w3.org/TR/2001/REC-SVG-20010904/DTD/svg10.dtd">
<svg version="1.0" xmlns="http://www.w3.org/2000/svg"
 width="510.000000pt" height="510.000000pt" viewBox="0 0 510.000000 510.000000"
 preserveAspectRatio="xMidYMid meet">
<metadata>
Created by potrace 1.11, written by Peter Selinger 2001-2013
</metadata>
<g transform="translate(0.000000,510.000000) scale(0.100000,-0.100000)"
fill="#000000" stroke="none">
<path d="M2315 5089 c-148 -17 -176 -21 -270 -40 -223 -45 -452 -125 -660
-232 -147 -76 -217 -120 -350 -218 -139 -104 -151 -114 -300 -264 -124 -124
-251 -282 -342 -425 -51 -80 -153 -270 -153 -285 0 -6 -4 -15 -9 -20 -24 -25
-139 -351 -157 -444 -1 -7 -8 -34 -14 -60 -14 -59 -19 -85 -26 -141 -3 -25 -8
-54 -10 -65 -19 -91 -25 -433 -11 -590 92 -1037 845 -1934 1854 -2210 71 -20
139 -38 153 -40 150 -28 174 -32 285 -42 101 -10 432 -10 505 0 30 4 74 10 96
13 23 3 53 7 65 9 23 5 153 31 194 39 41 9 232 68 278 87 132 53 156 64 207
89 213 105 400 226 560 365 65 56 256 250 295 300 22 28 43 52 46 55 10 8 133
181 159 225 49 79 61 102 125 230 74 151 121 268 164 415 46 157 70 288 91
490 7 73 5 440 -3 490 -2 14 -7 50 -11 80 -22 169 -87 418 -155 588 -164 410
-437 780 -778 1053 -30 24 -195 142 -218 156 -134 81 -187 110 -285 157 -163
77 -388 157 -485 172 -16 3 -37 7 -45 10 -8 3 -26 8 -40 10 -14 3 -47 9 -75
14 -27 6 -70 13 -95 15 -25 3 -56 7 -70 11 -38 8 -447 11 -515 3z"/>
</g>
</svg>
