<svg height="54" viewBox="0 0 54 54" width="54" xmlns="http://www.w3.org/2000/svg"><g fill="#0278fc"><path d="m14.4418605 19.1511628h-12.55813957c-.87906977 0-1.56976744.6906977-1.56976744 1.5697674v12.5581396c0 .8790697.69069767 1.5697674 1.56976744 1.5697674h12.55813957c.8790697 0 1.5697674-.6906977 1.5697674-1.5697674v-12.5581396c0-.8790697-.6906977-1.5697674-1.5697674-1.5697674zm-1.5697675 12.5581395h-9.41860463v-9.4186046h9.41860463z"/><path d="m14.4418605.31395349h-12.55813957c-.87906977 0-1.56976744.69069767-1.56976744 1.56976744v12.55813957c0 .8790697.69069767 1.5697674 1.56976744 1.5697674h12.55813957c.8790697 0 1.5697674-.6906977 1.5697674-1.5697674v-12.55813957c0-.87906977-.6906977-1.56976744-1.5697674-1.56976744zm-1.5697675 12.55813951h-9.41860463v-9.41860463h9.41860463z"/><path d="m14.4418605 37.9883721h-12.55813957c-.87906977 0-1.56976744.6906977-1.56976744 1.5697674v12.5581396c0 .8790697.69069767 1.5697674 1.56976744 1.5697674h12.55813957c.8790697 0 1.5697674-.6906977 1.5697674-1.5697674v-12.5581396c0-.8790697-.6906977-1.5697674-1.5697674-1.5697674zm-1.5697675 12.5581395h-9.41860463v-9.4186046h9.41860463z"/><path d="m52.1162791 3.45348837h-31.3953489c-.8790697 0-1.5697674.69069768-1.5697674 1.56976744 0 .87906977.6906977 1.56976745 1.5697674 1.56976745h31.3953489c.8790697 0 1.5697674-.69069768 1.5697674-1.56976745 0-.87906976-.6906977-1.56976744-1.5697674-1.56976744z"/><path d="m52.1162791 22.2906977h-31.3953489c-.8790697 0-1.5697674.6906976-1.5697674 1.5697674s.6906977 1.5697675 1.5697674 1.5697675h31.3953489c.8790697 0 1.5697674-.6906977 1.5697674-1.5697675s-.6906977-1.5697674-1.5697674-1.5697674z"/><path d="m52.1162791 41.127907h-31.3953489c-.8790697 0-1.5697674.6906977-1.5697674 1.5697674 0 .8790698.6906977 1.5697675 1.5697674 1.5697675h31.3953489c.8790697 0 1.5697674-.6906977 1.5697674-1.5697675 0-.8790697-.6906977-1.5697674-1.5697674-1.5697674z"/><path d="m20.7209302 12.872093h18.8372093c.8790698 0 1.5697675-.6906977 1.5697675-1.5697674 0-.8790698-.6906977-1.56976746-1.5697675-1.56976746h-18.8372093c-.8790697 0-1.5697674.69069766-1.5697674 1.56976746 0 .8790697.6906977 1.5697674 1.5697674 1.5697674z"/><path d="m20.7209302 31.7093023h18.8372093c.8790698 0 1.5697675-.6906976 1.5697675-1.5697674s-.6906977-1.5697675-1.5697675-1.5697675h-18.8372093c-.8790697 0-1.5697674.6906977-1.5697674 1.5697675s.6906977 1.5697674 1.5697674 1.5697674z"/><path d="m39.5581395 47.4069767h-18.8372093c-.8790697 0-1.5697674.6906977-1.5697674 1.5697675s.6906977 1.5697674 1.5697674 1.5697674h18.8372093c.8790698 0 1.5697675-.6906976 1.5697675-1.5697674s-.6906977-1.5697675-1.5697675-1.5697675z"/></g></svg>