<svg height="54" viewBox="0 0 54 54" width="54" xmlns="http://www.w3.org/2000/svg"><path d="m27.0035953 0c-.0174038 0-.0354078 0-.0528117.0006002-.3366749.0084028-8.3136492.24848283-13.9260975 3.84728243-.9824185.63021007-1.2686822 1.93744581-.6385421 2.91997332.6301402.98252751 1.9372309 1.26822274 2.9196494.63861287 4.482397-2.87375792 11.3041144-3.16425475 11.7308093-3.17925975 12.5409894.0174058 22.7378574 10.22680893 22.7378574 22.77339113 0 12.5567856-10.214872 22.7727909-22.7702646 22.7727909-6.2449891 0-12.2829321-2.5154384-16.5642843-6.9017005-4.14452189-4.2452151-6.34881218-9.8636879-6.20718068-15.803868.13322963-4.1737913 2.27930698-7.8956319 5.21876078-9.051017 2.0992669-.8252751 4.4457889-.2934978 6.8769296 1.5287096-2.7522122 4.2398132-2.2727055 9.9813271 1.4409205 13.6959653l3.3871534 3.3875292c.3966882.396132.9338077.6188062 1.4943324.6188062.5605246 0 1.0976441-.2226742 1.4943323-.6188062l1.3947103-1.394865 3.3871533 3.3875292c.4128919.4123374.9536122.6188063 1.4943324.6188063.5407203 0 1.0814406-.2064689 1.4943324-.6188063.8251835-.8258753.8251835-2.1637212 0-2.9889963l-3.3871534-3.3875292 3.7190272-3.7194398 3.3871534 3.3875291c.4128918.4123375.9536121.6188063 1.4943324.6188063s1.0814405-.2064688 1.4943324-.6188063c.8251835-.8258752.8251835-2.1637212 0-2.9889963l-3.3871534-3.3875292 1.3947102-1.3948649c.8251835-.8258753.8251835-2.1637213 0-2.9889963l-3.3871534-3.3881294c-2.0668597-2.0664889-4.8148709-3.2050684-7.7369209-3.2050684-2.2529011 0-4.4001787.6788263-6.2131819 1.935045-4.9877094-3.9637212-9.1910444-3.2752917-11.38873319-2.4116038-4.53460861 1.7825942-7.70811447 6.9467155-7.89715652 12.867089-.17043791 7.1045682 2.46054729 13.8082027 7.40684747 18.8744915 5.07232824 5.1953318 12.21211624 8.1753251 19.58835694 8.1753251 14.8863111 0 26.9970048-12.1120373 26.9970048-27s-12.1100936-27-26.9964047-27z" fill="#0278fc"/></svg>