<svg height="98" viewBox="0 0 97 98" width="97" xmlns="http://www.w3.org/2000/svg"><g fill="none" transform="translate(.47 .5)"><path d="m84.24 36.96c2.8404149-.0644671 5.587399 1.016181 7.6225531 2.9986694 2.0351542 1.9824884 3.1874368 4.7002019 3.1974469 7.5413306v18c-.0055126 5.6752023-4.6047977 10.2744874-10.28 10.28h-12.81v18.72c0 1.3807119-1.1192881 2.5-2.5 2.5h-9.94c-1.3807119 0-2.5-1.1192881-2.5-2.5v-26.64c.0055085-4.0625319 3.2974681-7.3544915 7.36-7.36h9.52v-13c.0513263-5.7184899 4.6137008-10.3736135 10.33-10.54zm4.12 6.54c-1.6078024-1.5633778-3.9953236-2.0123226-6.0611806-1.1397325s-3.4086034 2.8971495-3.4088194 5.1397325v15.5c0 .6630412-.2633921 1.298926-.732233 1.767767-.468841.4688409-1.1047258.732233-1.767767.732233h-12c-.6276474-.0000056-1.2294431.2500088-1.6723175.6947598s-.690342 1.0475984-.6877037 1.6752402v24.13h4.9300212v-18.72c0-1.3807119 1.1192881-2.5 2.5-2.5h15.32c2.9160635 0 5.28-2.3639365 5.28-5.28l-.02-18c.0070762-1.5062798-.5994976-2.9505032-1.68-4z" fill="#fdd32a"/><path d="m84.48 12.86c5.8408876.0055129 10.5744871 4.7391124 10.58 10.58 0 5.8431727-4.7368273 10.58-10.58 10.58s-10.58-4.7368273-10.58-10.58 4.7368273-10.58 10.58-10.58zm2.1353736 5.4247522c-2.0851031-.863678-4.4851606-.3862769-6.0810294 1.209592-1.5958689 1.5958688-2.07327 3.9959263-1.209592 6.0810294.863678 2.085103 2.8983485 3.4446264 5.1552478 3.4446264 3.0794662-.005504 5.574496-2.5005338 5.58-5.58 0-2.2568993-1.3595234-4.2915698-3.4446264-5.1552478z" fill="#fdd32a"/><path d="m47 0c5.8408876.00551288 10.5744871 4.73911238 10.58 10.58 0 5.8431727-4.7368273 10.58-10.58 10.58s-10.58-4.7368273-10.58-10.58c0-5.84317265 4.7368273-10.58 10.58-10.58zm0 5c-3.0817489 0-5.58 2.4982511-5.58 5.58s2.4982511 5.58 5.58 5.58c3.0794662-.005504 5.574496-2.5005338 5.58-5.58 0-3.0817489-2.4982511-5.58-5.58-5.58z" fill="#0376fc"/><path d="m10.4796383 36.9577449.3403617.0022551c5.7162992.1663865 10.2786737 4.8215101 10.33 10.54v13h9.52c4.0664328.0055176 7.36 3.3035634 7.36 7.37v26.63c0 1.3807119-1.1192881 2.5-2.5 2.5h-9.93c-1.3807119 0-2.5-1.1192881-2.5-2.5v-18.72h-12.82c-5.67520227-.0055126-10.27448741-4.6047977-10.28-10.28v-18c.01001008-2.8411287 1.16229273-5.5588422 3.19744688-7.5413306s4.78213823-3.0631365 7.62255312-2.9986694zm.2203617 4.9622551c-1.50058885-.0322782-2.95090808.5413323-4.02346005 1.5913043-1.07255197 1.0499719-1.67688707 2.4877598-1.6765401 3.9886957v18c0 2.9160635 2.36393667 5.28 5.28000015 5.28h15.32c1.3807119 0 2.5 1.1192881 2.5 2.5v18.72h4.91v-24.13c0-1.303392-1.056608-2.36-2.36-2.36h-12c-1.3807119 0-2.5-1.1192881-2.5-2.5v-15.51c-.0149484-3.0252409-2.4259518-5.4937545-5.45-5.58z" fill="#fe3bb5"/><path d="m10.58 12.86c5.8431727 0 10.58 4.7368273 10.58 10.58s-4.7368273 10.58-10.58 10.58c-5.84088762-.0055129-10.57448712-4.7391124-10.58-10.58 0-5.8431727 4.73682735-10.58 10.58-10.58zm0 5c-3.0794662.005504-5.57449603 2.5005338-5.58 5.58 0 3.0817489 2.4982511 5.58 5.58 5.58s5.58-2.4982511 5.58-5.58-2.4982511-5.58-5.58-5.58z" fill="#fe3bb5"/><path d="m58.66 42.67v-6.46c-.0026402-1.8865129-.7559625-3.6944141-2.093677-5.0246239-1.3377144-1.3302097-3.1498251-2.0733491-5.036323-2.0653761h-9.09c-3.9134151.005508-7.084492 3.1765849-7.09 7.09v6.46c0 1.3807119-1.1192881 2.5-2.5 2.5s-2.5-1.1192881-2.5-2.5v-6.46c.0110108-6.6725565 5.4174435-12.0789892 12.09-12.0900166h9.09c3.211773-.0052921 6.2941086 1.2654907 8.5689258 3.5328065s3.5557742 5.3454371 3.5610742 8.5572101v6.46c0 1.3807119-1.1192881 2.5-2.5 2.5s-2.5-1.1192881-2.5-2.5z" fill="#0376fc"/><path d="m65.77 54.96h-16.24v39.54c0 1.3807119-1.1192881 2.5-2.5 2.5s-2.5-1.1192881-2.5-2.5v-39.54h-16.29c-1.3807119 0-2.5-1.1192881-2.5-2.5s1.1192881-2.5 2.5-2.5h37.53c1.3807119 0 2.5 1.1192881 2.5 2.5s-1.1192881 2.5-2.5 2.5z" fill="#000"/></g></svg>