<svg height="53" viewBox="0 0 53 53" width="53" xmlns="http://www.w3.org/2000/svg">
    <g fill="#0278fc">
        <path d="m26.5 53c-3.5527473 0-7.0472527-.6989011-10.3087912-2.0967033-3.145055-1.3395604-5.9989011-3.2615385-8.44505495-5.6494505-2.44615385-2.4461539-4.36813187-5.2417583-5.64945055-8.445055-1.3978022-3.2615385-2.0967033-6.7560439-2.0967033-10.3087912s.6989011-7.0472527 2.0967033-10.3087912c1.33956044-3.145055 3.26153846-5.9989011 5.64945055-8.44505495 2.38791205-2.44615385 5.24175825-4.36813187 8.44505495-5.64945055 3.2615385-1.3978022 6.7560439-2.0967033 10.3087912-2.0967033s7.0472527.6989011 10.3087912 2.0967033c3.145055 1.33956044 5.9989011 3.26153846 8.445055 5.64945055 2.4461538 2.44615385 4.3681318 5.24175825 5.6494505 8.44505495 1.3978022 3.2615385 2.0967033 6.7560439 2.0967033 10.3087912s-.6989011 7.0472527-2.0967033 10.3087912c-1.3395604 3.145055-3.2615385 5.9989011-5.6494505 8.445055-2.4461539 2.4461538-5.2417583 4.3681318-8.445055 5.6494505-3.2615385 1.3978022-6.7560439 2.0967033-10.3087912 2.0967033zm0-47.58351648c-5.6494505 0-10.9494505 2.21318681-14.9098901 6.17362638-3.96043957 3.9604396-6.17362638 9.2604396-6.17362638 14.9098901s2.21318681 10.9494505 6.17362638 14.9098901c3.9604396 3.9604396 9.2604396 6.1736264 14.9098901 6.1736264s10.9494505-2.2131868 14.9098901-6.1736264 6.1736264-9.2604396 6.1736264-14.9098901-2.2131868-10.9494505-6.1736264-14.9098901c-3.9604396-3.96043957-9.2604396-6.17362638-14.9098901-6.17362638z"/>
        <path d="m11 22.564029h7.2520345c1.9021729-4.1133657 6.8359341-5.9349991 10.9969375-4.0546034 4.1610033 1.8803958 6.0037334 6.7576724 4.1015604 10.8710381-1.9021729 4.1133658-6.8359341 5.9349992-10.9969375 4.0546034-1.7832871-.8226732-3.2693598-2.23297-4.1015604-4.0546034h-7.2520345c1.902173 8.1092068 10.1052939 13.1040081 18.248972 11.2236123 8.143678-1.8803958 13.2557679-9.9308402 11.3535949-18.040047s-10.1052939-13.04524567-18.248972-11.1648499c-5.647076 1.2927721-10.045851 5.6411873-11.3535949 11.1648499z"/>
    </g>
</svg>