<svg height="54" viewBox="0 0 53 54" width="53" xmlns="http://www.w3.org/2000/svg"><g fill="#0278fc"><path d="m42.55 15.75c-.9-.9-2.325-.9-3.15 0-.9.9-.9 2.325 0 3.15l8.1 8.1-8.1 8.1c-.9.9-.9 2.325 0 3.15.45.45 1.05.675 1.575.675s1.125-.225 1.575-.675l9.675-9.675c.9-.9.9-2.325 0-3.15z"/><path d="m35 .6c-1.2-.375-2.475.375-2.775 1.575l-13.8 48.45c-.375 1.2.375 2.475 1.575 2.775.225.075.375.075.6.075.975 0 1.875-.675 2.175-1.65l13.725-48.45c.375-1.2-.3-2.475-1.5-2.775z"/><path d="m14.1 15.75c-.9-.9-2.325-.9-3.15 0l-9.675 9.675c-.9.9-.9 2.325 0 3.15l9.675 9.675c.45.45 1.05.675 1.575.675s1.125-.225 1.575-.675c.9-.9.9-2.325 0-3.15l-8.1-8.1 8.1-8.1c.9-.825.9-2.25 0-3.15z"/></g></svg>