<?xml version="1.0" encoding="UTF-8"?>
<svg width="127px" height="127px" viewBox="0 0 127 127" version="1.1" xmlns="http://www.w3.org/2000/svg"
     xmlns:xlink="http://www.w3.org/1999/xlink">
    <title>Group</title>
    <g id="Page-1" stroke="none" stroke-width="1" fill="none" fill-rule="evenodd">
        <g id="Group" fill-rule="nonzero">
            <g transform="translate(0.000000, 66.000000)" fill="#E01E5A" id="Path">
                <path d="M27.2,14 C27.2,21.3 21.3,27.2 14,27.2 C6.7,27.2 0.8,21.3 0.8,14 C0.8,6.7 6.7,0.8 14,0.8 L27.2,0.8 L27.2,14 Z"></path>
                <path d="M33.8,14 C33.8,6.7 39.7,0.8 47,0.8 C54.3,0.8 60.2,6.7 60.2,14 L60.2,47 C60.2,54.3 54.3,60.2 47,60.2 C39.7,60.2 33.8,54.3 33.8,47 L33.8,14 Z"></path>
            </g>
            <g fill="#36C5F0" id="Path">
                <path d="M47,27 C39.7,27 33.8,21.1 33.8,13.8 C33.8,6.5 39.7,0.6 47,0.6 C54.3,0.6 60.2,6.5 60.2,13.8 L60.2,27 L47,27 Z"></path>
                <path d="M47,33.7 C54.3,33.7 60.2,39.6 60.2,46.9 C60.2,54.2 54.3,60.1 47,60.1 L13.9,60.1 C6.6,60.1 0.7,54.2 0.7,46.9 C0.7,39.6 6.6,33.7 13.9,33.7 L47,33.7 Z"></path>
            </g>
            <g transform="translate(66.000000, 0.000000)" fill="#2EB67D" id="Path">
                <path d="M33.9,46.9 C33.9,39.6 39.8,33.7 47.1,33.7 C54.4,33.7 60.3,39.6 60.3,46.9 C60.3,54.2 54.4,60.1 47.1,60.1 L33.9,60.1 L33.9,46.9 Z"></path>
                <path d="M27.3,46.9 C27.3,54.2 21.4,60.1 14.1,60.1 C6.8,60.1 0.9,54.2 0.9,46.9 L0.9,13.8 C0.9,6.5 6.8,0.6 14.1,0.6 C21.4,0.6 27.3,6.5 27.3,13.8 L27.3,46.9 Z"></path>
            </g>
            <g transform="translate(66.000000, 66.000000)" fill="#ECB22E" id="Path">
                <path d="M14.1,33.8 C21.4,33.8 27.3,39.7 27.3,47 C27.3,54.3 21.4,60.2 14.1,60.2 C6.8,60.2 0.9,54.3 0.9,47 L0.9,33.8 L14.1,33.8 Z"></path>
                <path d="M14.1,27.2 C6.8,27.2 0.9,21.3 0.9,14 C0.9,6.7 6.8,0.8 14.1,0.8 L47.2,0.8 C54.5,0.8 60.4,6.7 60.4,14 C60.4,21.3 54.5,27.2 47.2,27.2 L14.1,27.2 Z"></path>
            </g>
        </g>
    </g>
</svg>